<svg xmlns="http://www.w3.org/2000/svg" viewBox="0 0 640 460">
<rect width="640" height="460" fill="#10bfa5"/>
<circle cx="70" cy="70" r="95" fill="#fff" opacity=".13"/><circle cx="565" cy="390" r="125" fill="#000" opacity=".06"/>
<circle cx="320" cy="230" r="135" fill="#dcfff7" stroke="#1d1d1b" stroke-width="18"/><path d="M185 230h270M320 95c-45 44-68 89-68 135 0 50 24 94 68 135M320 95c45 44 68 89 68 135 0 50-24 94-68 135" fill="none" stroke="#1d1d1b" stroke-width="13"/><path d="M160 130l-45 55 45 55M480 130l45 55-45 55" fill="none" stroke="#1d1d1b" stroke-width="15" stroke-linecap="round" stroke-linejoin="round"/>
<rect x="24" y="24" width="116" height="38" rx="19" fill="#fff" stroke="#1d1d1b" stroke-width="5"/>
<text x="82" y="49" text-anchor="middle" font-family="Arial,sans-serif" font-size="17" font-weight="800" fill="#1d1d1b">WWW</text>
</svg>